<svg id="icon2" xmlns="http://www.w3.org/2000/svg" xmlns:xlink="http://www.w3.org/1999/xlink" width="81.583" height="80.815" viewBox="0 0 81.583 80.815">
  <defs>
    <clipPath id="clip-path">
      <path id="Path_15" data-name="Path 15" d="M0,0H42V42H0Z" fill="#fff"/>
    </clipPath>
  </defs>
  <path id="Path_10" data-name="Path 10" d="M20,0H52A20,20,0,0,1,72,20V52A20,20,0,0,1,52,72H20A20,20,0,0,1,0,52V20A20,20,0,0,1,20,0Z" transform="translate(4.792 4.407)" fill="rgba(234,78,127,0.05)"/>
  <g id="Mask_Group_3" data-name="Mask Group 3" transform="translate(19.792 19.407)" clip-path="url(#clip-path)">
    <g id="ai-svgrepo-com" transform="translate(5.399 7.756)">
      <g id="Group_4" data-name="Group 4">
        <g id="Group_3" data-name="Group 3">
          <path id="Path_12" data-name="Path 12" d="M26.487,15.2a2.37,2.37,0,0,0-4.337,0L12.689,36.963a2.352,2.352,0,0,0,1.226,3.1,2.269,2.269,0,0,0,.943.2,2.381,2.381,0,0,0,2.169-1.414L19.1,34.1H29.614l2.074,4.746a2.354,2.354,0,0,0,4.322-1.87ZM21.128,29.372l3.206-7.355,3.206,7.355Z" transform="translate(-12.493 -13.783)" fill="#ea4e7f"/>
          <path id="Path_13" data-name="Path 13" d="M29.3,18.677a2.354,2.354,0,0,0-2.357,2.357V33.827a2.357,2.357,0,0,0,4.715,0V21.034A2.354,2.354,0,0,0,29.3,18.677Z" transform="translate(-0.453 -9.704)" fill="#ea4e7f"/>
          <path id="Path_14" data-name="Path 14" d="M29.3,14.263A2.354,2.354,0,0,0,26.94,16.62v.629a2.357,2.357,0,0,0,4.715,0V16.62A2.354,2.354,0,0,0,29.3,14.263Z" transform="translate(-0.453 -13.383)" fill="#ea4e7f"/>
        </g>
      </g>
    </g>
  </g>
  <g id="Path_27" data-name="Path 27" fill="none" stroke-dasharray="100 50">
    <path d="M22.662,0H58.921A22.556,22.556,0,0,1,81.583,22.449V58.366A22.556,22.556,0,0,1,58.921,80.815H22.662A22.556,22.556,0,0,1,0,58.366V22.449A22.556,22.556,0,0,1,22.662,0Z" stroke="none"/>
    <path d="M 22.66208267211914 0 L 58.92141723632812 0 C 59.04402923583984 -0.0001220703125 59.16627502441406 0.00095367431640625 59.28842163085938 0.0028839111328125 C 61.52436065673828 0.0379486083984375 63.68019104003906 0.3936309814453125 65.71399688720703 1.02581787109375 C 66.40503692626953 1.2406005859375 67.08174896240234 1.487274169921875 67.74251556396484 1.764122009277344 C 69.35646057128906 2.440330505371094 70.87487030029297 3.296478271484375 72.27210235595703 4.307174682617188 C 72.79015350341797 4.681892395019531 73.29083251953125 5.077301025390625 73.77426147460938 5.493209838867188 C 74.1776123046875 5.840217590332031 74.56833648681641 6.201004028320312 74.9459228515625 6.575035095214844 C 76.99643707275391 8.606224060058594 78.65582275390625 11.02485656738281 79.80258941650391 13.71056365966797 C 80.25090026855469 14.76049041748047 80.620849609375 15.85120391845703 80.90521240234375 16.97557067871094 C 81.25099945068359 18.34270477294922 81.47008514404297 19.7586555480957 81.54971313476562 21.21229553222656 C 81.550537109375 21.22741317749023 81.55134582519531 21.24237442016602 81.55213928222656 21.25750350952148 C 81.57138061523438 21.62203216552734 81.58184051513672 21.98883056640625 81.58331298828125 22.35776519775391 C 81.58341979980469 22.38497924804688 81.58348083496094 22.41224670410156 81.58348846435547 22.43948364257812 C 81.58348846435547 22.44251251220703 81.58349609375 22.44553756713867 81.58349609375 22.44856643676758 C 81.58349609375 22.44856643676758 81.58349609375 50.75507354736328 81.58349609375 50.75507354736328 L 80.58349609375 50.75507354736328 L 80.58349609375 22.44856643676758 C 80.58349609375 19.55376434326172 80.01133728027344 16.74600219726562 78.88292694091797 14.10325622558594 C 77.79251098632812 11.54954528808594 76.23114776611328 9.255706787109375 74.24217224121094 7.285476684570312 C 72.25254821777344 5.314590454101562 69.93572998046875 3.767257690429688 67.35609436035156 2.686431884765625 C 64.68522644042969 1.567398071289062 61.84739303588867 1 58.92141723632812 1 L 22.66208267211914 1 L 22.66208267211914 0 C 22.66208267211914 0 22.66208267211914 0 22.66208267211914 0 Z M 0 23.10506439208984 L 1 23.10506439208984 L 1 58.36626434326172 C 1 61.26106262207031 1.572158813476562 64.06883239746094 2.700569152832031 66.71156311035156 C 3.790985107421875 69.26527404785156 5.352348327636719 71.55911254882812 7.341323852539062 73.52934265136719 C 9.330947875976562 75.50022125244141 11.64777374267578 77.04756164550781 14.22740173339844 78.12838745117188 C 16.89828491210938 79.24742126464844 19.73611450195312 79.8148193359375 22.66208267211914 79.8148193359375 L 51.96673583984375 79.8148193359375 L 51.96673583984375 80.8148193359375 C 51.96673583984375 80.8148193359375 22.66208267211914 80.8148193359375 22.66208267211914 80.8148193359375 C 22.53947448730469 80.8148193359375 22.41722106933594 80.81385803222656 22.29507446289062 80.81193542480469 C 19.8437614440918 80.77349090576172 17.48855590820312 80.34971618652344 15.28538513183594 79.59871673583984 C 14.796142578125 79.43196105957031 14.31442260742188 79.24906158447266 13.84098052978516 79.05069732666016 C 12.90451812744141 78.65834045410156 12.00042724609375 78.20552062988281 11.13330078125 77.69696807861328 C 9.490707397460938 76.73355102539062 7.98028564453125 75.56961059570312 6.638519287109375 74.24072265625 C 6.638145446777344 74.2403564453125 6.637947082519531 74.24015808105469 6.6375732421875 74.23978424072266 C 6.633064270019531 74.23532104492188 6.628608703613281 74.23090362548828 6.624107360839844 74.2264404296875 C 6.621109008789062 74.22346496582031 6.617843627929688 74.22022247314453 6.614837646484375 74.21723937988281 C 6.610214233398438 74.212646484375 6.605331420898438 74.20778656005859 6.6007080078125 74.20319366455078 C 6.593215942382812 74.19573211669922 6.585494995117188 74.18803405761719 6.578010559082031 74.18057250976562 C 6.575889587402344 74.17845153808594 6.57366943359375 74.17623901367188 6.571548461914062 74.17411804199219 C 5.769371032714844 73.37295532226562 5.028244018554688 72.51285552978516 4.354537963867188 71.59982299804688 C 3.331489562988281 70.21340179443359 2.464942932128906 68.70626831054688 1.780906677246094 67.10425567626953 C 1.418617248535156 66.25579071044922 1.1075439453125 65.38082122802734 0.851409912109375 64.48284149169922 C 0.2983856201171875 62.54393005371094 0.00170135498046875 60.498291015625 7.62939453125e-06 58.38442230224609 C 7.62939453125e-06 58.37837219238281 0 58.37231826782227 0 58.36626434326172 L 0 23.10506439208984 Z" stroke="none" fill="rgba(234,78,127,0.2)"/>
  </g>
</svg>
