<svg xmlns="http://www.w3.org/2000/svg" width="94.358" height="28.684" viewBox="0 0 94.358 28.684">
  <path id="arrow_2" data-name="arrow 2" d="M60.918,7.3a67.22,67.22,0,0,0-32.1-.916A67.63,67.63,0,0,0,12.49,12.636C9.813,14.019,7.227,15.511,4.7,17.149c-.732.476-3.357,3.033-4.174,2.634-2.747-1.343,8.313-8.511,9.561-9.2A73.788,73.788,0,0,1,26.731,3.442C36.568.856,47.982-.075,58,2.1c5.833,1.266,11.692,2.474,17.186,5a40.931,40.931,0,0,1,6.6,3.8,43.108,43.108,0,0,1,4.259,3.35c.979.9,1.769,2.545,2.84,3.236.449-2.189-1.1-4.851-.813-7.152.348-2.736,2.153-1.264,2.856.438a72.658,72.658,0,0,1,2.55,8.384c.667,2.394,2.106,5.3-.627,6.694-2.4,1.223-5.36,1.552-7.938,2.242-1.723.462-5.226,2.343-6.891,1.021-5.2-4.13,9.339-5.115,10.3-5.61a20.677,20.677,0,0,0-2.506-2.148c-1.122-1.056-2.08-2.257-3.208-3.308a45.229,45.229,0,0,0-7.026-5.325A41.027,41.027,0,0,0,60.918,7.3c-3.6-1.073.723.112,0,0" transform="translate(-0.095 -0.886)" fill="#7e72f0"/>
</svg>
