<svg xmlns="http://www.w3.org/2000/svg" xmlns:xlink="http://www.w3.org/1999/xlink" width="182" height="29" viewBox="0 0 182 29">
  <defs>
    <linearGradient id="linear-gradient" x1="0.031" y1="-0.065" x2="1" y2="1.121" gradientUnits="objectBoundingBox">
      <stop offset="0" stop-color="#ea4e7f"/>
      <stop offset="1" stop-color="#7e72f0"/>
    </linearGradient>
  </defs>
  <g id="footer_logo" data-name="footer logo" transform="translate(-140 -4857)">
    <g id="cardiogram-svgrepo-com" transform="translate(140 4803.512)">
      <g id="Group_1" data-name="Group 1" transform="translate(0 53.488)">
        <path id="Path_1" data-name="Path 1" d="M35.851,68.729h-2.31l.607-.607h0l0,0,0,0A8.575,8.575,0,0,0,22.021,56L18.33,59.687,14.638,56A8.575,8.575,0,0,0,2.511,68.122l.607.607H.808a.808.808,0,0,0,0,1.616H4.735L15.853,81.464h0a3.506,3.506,0,0,0,4.952,0L31.925,70.346h3.927a.808.808,0,1,0,0-1.616ZM19.663,80.321a1.888,1.888,0,0,1-2.667,0l0,0L7.021,70.346H8.808a.808.808,0,0,0,.655-.334l3.007-4.153,3.48,10.063a.808.808,0,0,0,1.514.036L21.007,67.1l3.56,5.036a.809.809,0,0,0,1.17.161l2.4-1.952h1.5ZM33,66.98l-.014.015-.018.018-1.718,1.718h-3.4a.809.809,0,0,0-.51.181L25.387,70.5l-3.919-5.544a.809.809,0,0,0-1.41.166l-3.289,8.224L13.49,63.863a.809.809,0,0,0-1.418-.21L8.4,68.729H5.4l-1.75-1.75A6.958,6.958,0,0,1,13.5,57.139L17.758,61.4a.808.808,0,0,0,1.143,0l4.263-4.263A6.958,6.958,0,0,1,33,66.98h0Z" transform="translate(0 -53.488)" fill="url(#linear-gradient)"/>
      </g>
    </g>
    <text id="logo" transform="translate(189 4879)" font-size="21" font-family="Poppins-Bold, Poppins" font-weight="700" letter-spacing="0.06em"><tspan x="0" y="0">Artack App</tspan></text>
  </g>
</svg>
