<svg xmlns="http://www.w3.org/2000/svg" xmlns:xlink="http://www.w3.org/1999/xlink" width="201" height="33.622" viewBox="0 0 201 33.622">
  <defs>
    <linearGradient id="linear-gradient" x1="0.031" y1="-0.065" x2="1" y2="1.121" gradientUnits="objectBoundingBox">
      <stop offset="0" stop-color="#ea4e7f"/>
      <stop offset="1" stop-color="#7e72f0"/>
    </linearGradient>
  </defs>
  <g id="logo" transform="translate(-140 -33.189)">
    <g id="cardiogram-svgrepo-com" transform="translate(140 -20.299)">
      <g id="Group_1" data-name="Group 1" transform="translate(0 53.488)">
        <path id="Path_1" data-name="Path 1" d="M41.565,71.158H38.887l.7-.7h0l0,0,0,0A9.941,9.941,0,0,0,25.531,56.4l-4.28,4.28-4.28-4.28A9.941,9.941,0,0,0,2.912,70.454l.7.7H.937a.937.937,0,0,0,0,1.874H5.489l12.89,12.89h0a4.065,4.065,0,0,0,5.741,0l12.89-12.89h4.552a.937.937,0,1,0,0-1.874ZM22.8,84.6a2.189,2.189,0,0,1-3.092,0l0,0L8.14,73.032h2.072a.937.937,0,0,0,.759-.387l3.486-4.815L18.492,79.5a.937.937,0,0,0,1.756.042L24.355,69.27l4.127,5.839a.937.937,0,0,0,1.356.186l2.785-2.263h1.74ZM38.265,69.13l-.017.017-.021.02-1.991,1.991H32.29a.937.937,0,0,0-.591.21l-2.265,1.841L24.89,66.781a.938.938,0,0,0-1.635.193l-3.814,9.534-3.8-10.992A.938.938,0,0,0,14,65.273L9.733,71.158H6.266L4.237,69.13A8.067,8.067,0,0,1,15.646,57.721l4.943,4.943a.937.937,0,0,0,1.325,0l4.943-4.943A8.067,8.067,0,0,1,38.265,69.13h0Z" transform="translate(0 -53.488)" fill="url(#linear-gradient)"/>
      </g>
    </g>
    <text id="logo-2" data-name="logo" transform="translate(195 58)" font-size="23" font-family="Poppins-Bold, Poppins" font-weight="700" letter-spacing="0.06em"><tspan x="0" y="0">Artack App</tspan></text>
  </g>
</svg>
